<svg xmlns="http://www.w3.org/2000/svg" viewBox="0 0 256 256">
  <rect width="256" height="256" fill="#f5e6d3"/>
  <path d="M128 80 Q100 65 85 75 Q70 85 75 100 L85 120 Q90 130 100 128 L128 125 L156 128 Q166 130 171 120 L181 100 Q186 85 171 75 Q156 65 128 80 Z" fill="#8b6f47" stroke="#6b5435" stroke-width="2"/>
  <ellipse cx="128" cy="125" rx="60" ry="8" fill="#6b5435" opacity="0.3"/>
  <path d="M128 125 L128 100 M115 120 L115 105 M141 120 L141 105" stroke="#6b5435" stroke-width="1.5" fill="none"/>
  <rect x="118" y="125" width="20" height="15" rx="2" fill="#8b6f47" stroke="#6b5435" stroke-width="1.5"/>
  <path d="M128 180 L128 140 Q128 138 126 138 L122 138 Q120 138 120 140 L120 180" fill="#6b5435"/>
  <path d="M128 155 Q115 150 110 160 L105 175 Q103 182 108 185 Q112 187 115 182 L120 170" fill="#8b6f47"/>
  <path d="M128 155 Q141 150 146 160 L151 175 Q153 182 148 185 Q144 187 141 182 L136 170" fill="#8b6f47"/>
  <path d="M128 145 Q120 142 115 148 L110 160 Q108 165 112 167 Q115 168 117 164 L120 155" fill="#9d7f52"/>
  <path d="M128 145 Q136 142 141 148 L146 160 Q148 165 144 167 Q141 168 139 164 L136 155" fill="#9d7f52"/>
  <ellipse cx="128" cy="180" rx="25" ry="6" fill="#6b5435" opacity="0.4"/>
</svg>